Coordinates
version=1
nRows=7
nColumns=40
inDegrees=yes

Units are S.I. units (second, meters, Newtons, ...)
If the header above contains a line with 'inDegrees', this indicates whether rotational values are in degrees (yes) or radians (no).

endheader
time	pelvis_tilt	pelvis_list	pelvis_rotation	pelvis_tx	pelvis_ty	pelvis_tz	hip_flexion_r	hip_adduction_r	hip_rotation_r	knee_angle_r	knee_angle_r_beta	ankle_angle_r	subtalar_angle_r	mtp_angle_r	hip_flexion_l	hip_adduction_l	hip_rotation_l	knee_angle_l	knee_angle_l_beta	ankle_angle_l	subtalar_angle_l	mtp_angle_l	lumbar_extension	lumbar_bending	lumbar_rotation	arm_flex_r	arm_add_r	arm_rot_r	elbow_flex_r	pro_sup_r	wrist_flex_r	wrist_dev_r	arm_flex_l	arm_add_l	arm_rot_l	elbow_flex_l	pro_sup_l	wrist_flex_l	wrist_dev_l
      8.00000000	      8.24915837	     -0.69056407	   -168.77122013	      0.34694395	      0.75432130	     -0.58611848	     58.07450621	    -20.55162948	     -6.08797562	     69.07247191	      1.20554206	     22.66150051	      0.00000000	      0.00000000	     60.68300996	     -0.29590928	      1.91525931	     69.62027905	      1.21510310	     19.30494966	      0.00000000	      0.00000000	    -59.58833629	     11.50141305	    -10.55040102	      0.00000000	     -7.66513085	      0.00000000	     73.11269276	     55.28664775	      0.00000000	      0.00000000	      0.00000000	     -7.66513085	      0.00000000	     73.11269276	     55.28664775	      0.00000000	      0.00000000
      8.00500000	      8.32941948	     -0.64696746	   -168.74972519	      0.34674883	      0.75453441	     -0.58594185	     58.12294586	    -20.57258552	     -6.14916168	     69.04292322	      1.20502634	     22.48971107	      0.00000000	      0.00000000	     60.76969682	     -0.27138585	      1.96838434	     69.61925295	      1.21508519	     19.14251645	      0.00000000	      0.00000000	    -59.55841129	     11.56698542	    -10.49001112	      0.00000000	     -7.70138203	      0.00000000	     73.12989429	     55.06638524	      0.00000000	      0.00000000	      0.00000000	     -7.70138203	      0.00000000	     73.12989429	     55.06638524	      0.00000000	      0.00000000
      8.01000000	      8.34912144	     -0.64203040	   -168.77175964	      0.34641266	      0.75511708	     -0.58594306	     57.99136384	    -20.51832318	     -6.16682960	     68.85101421	      1.20167689	     22.68706917	      0.00000000	      0.00000000	     60.63419113	     -0.26511899	      2.00110373	     69.44086588	      1.21197175	     19.37378113	      0.00000000	      0.00000000	    -59.57891114	     11.57226193	    -10.46026078	      0.00000000	     -7.74229629	      0.00000000	     73.14955239	     54.80005609	      0.00000000	      0.00000000	      0.00000000	     -7.74229629	      0.00000000	     73.14955239	     54.80005609	      0.00000000	      0.00000000
      8.01500000	      8.40565278	     -0.61180378	   -168.80697301	      0.34608860	      0.75536435	     -0.58607431	     58.02429654	    -20.47546936	     -6.18512827	     68.83137591	      1.20133414	     22.56085473	      0.00000000	      0.00000000	     60.67421829	     -0.33742373	      1.97439078	     69.43438403	      1.21185862	     19.25467152	      0.00000000	      0.00000000	    -59.57251483	     11.55725101	    -10.42005865	      0.00000000	     -7.76654855	      0.00000000	     73.16066417	     54.67695731	      0.00000000	      0.00000000	      0.00000000	     -7.76654855	      0.00000000	     73.16066417	     54.67695731	      0.00000000	      0.00000000
      8.02000000	      8.46079855	     -0.60498984	   -168.76997968	      0.34586558	      0.75572450	     -0.58595108	     57.98418679	    -20.50778223	     -6.22918168	     68.72969605	      1.19955949	     22.64490317	      0.00000000	      0.00000000	     60.64822427	     -0.27412806	      2.02672442	     69.32438237	      1.20993872	     19.30056203	      0.00000000	      0.00000000	    -59.54747265	     11.60318236	    -10.38406885	      0.00000000	     -7.80429215	      0.00000000	     73.17859987	     54.44312673	      0.00000000	      0.00000000	      0.00000000	     -7.80429215	      0.00000000	     73.17859987	     54.44312673	      0.00000000	      0.00000000
      8.02500000	      8.36645160	     -0.73494343	   -168.80938363	      0.34540683	      0.75659306	     -0.58597737	     57.79177142	    -20.57977853	     -6.21930572	     68.61846388	      1.19761812	     22.58561407	      0.00000000	      0.00000000	     60.36856083	     -0.26549217	      1.86558849	     69.15587320	      1.20699768	     19.29580086	      0.00000000	      0.00000000	    -59.72604461	     11.50357829	    -10.43470115	      0.00000000	     -7.85577768	      0.00000000	     73.20300065	     54.12748643	      0.00000000	      0.00000000	      0.00000000	     -7.85577768	      0.00000000	     73.20300065	     54.12748643	      0.00000000	      0.00000000
      8.03000000	      8.42491158	     -0.69237621	   -168.83391018	      0.34517089	      0.75686666	     -0.58606109	     57.82628289	    -20.52770475	     -6.23588313	     68.59455849	      1.19720089	     22.42132296	      0.00000000	      0.00000000	     60.42188450	     -0.32888664	      1.86097670	     69.15318948	      1.20695084	     19.14585164	      0.00000000	      0.00000000	    -59.67884164	     11.52794874	    -10.39054961	      0.00000000	     -7.88107699	      0.00000000	     73.21450812	     54.00138200	      0.00000000	      0.00000000	      0.00000000	     -7.88107699	      0.00000000	     73.21450812	     54.00138200	      0.00000000	      0.00000000
